# xmcd CD database file
#
# Track frame offsets:
#	150
#	16697
#	34447
#	58603
#	81695
#	91524
#	117297
#	130823
#	144292
#	148992
#	164107
#	180278
#	192029
#	211262
#	227342
#	241058
#	258181
#	276683
#	296370
#	313879
#	345010
#
# Disc length: 4805 seconds
#
# Revision: 1
# Processed by: cddbd v1.5.2PL0 Copyright (c) Steve Scherf et al.
# Submitted via: CDex 1.51
#
DISCID=2812c315
DTITLE=SONNY BOY WILLIAMSON II - Bye Bye Sonny CD-1
DYEAR=2007
DGENRE=Blues
TTITLE0=Bye Bye Bird(Live)
TTITLE1=Mister Downchild(Live)
TTITLE2=The River Rhine(Live)
TTITLE3=Twenty-Three Hours Too Long(Live)
TTITLE4=Lost Care(Live)
TTITLE5=Take It Easy(Live)
TTITLE6=Out Of The Water Coast(Live)
TTITLE7=Western Arizona(Live)
TTITLE8=Slow Walk(Live)
TTITLE9=Highway 69(Live)
TTITLE10=My Little Cabin(Live)
TTITLE11=Sonny's Slow Walk(Live)
TTITLE12=Pontiac Blues(Live)
TTITLE13=My Babe(With The Animals)(Live)
TTITLE14=I Don't Care No More(With The Animals)(Live)
TTITLE15=Baby Don't You Worry(The Animals)(Live)
TTITLE16=Night Time Is The Right Time(The Animals)(Live)
TTITLE17=I'm Gonna Put You Down(The Animals)(Live)
TTITLE18=Fattenin' Frogs For Snakes(The Animals)(Live)
TTITLE19=Nobody But You(The Animals)(Live)
TTITLE20=Bye, Bye Sonny, Bye Bye(With The Animals)(Live)
EXTD=YEAR: 2007
EXTT0=
EXTT1=
EXTT2=
EXTT3=
EXTT4=
EXTT5=
EXTT6=
EXTT7=
EXTT8=
EXTT9=
EXTT10=
EXTT11=
EXTT12=
EXTT13=
EXTT14=
EXTT15=
EXTT16=
EXTT17=
EXTT18=
EXTT19=
EXTT20=
PLAYORDER=
